<svg width="55" height="55" viewBox="0 0 55 55" fill="none" xmlns="http://www.w3.org/2000/svg">
<path d="M45.278 17.658C44.774 16.878 44.192 16.158 43.52 15.486L38.647 10.615C37.9861 9.95682 37.2581 9.36962 36.475 8.86301C37.177 7.28501 38.557 3.94301 39.109 0.973011C39.301 -0.0579894 40.639 -0.351989 41.257 0.493011C42.313 1.94501 43.357 3.81201 43.046 5.20901L50.27 2.31201C51.248 1.91601 52.227 2.89401 51.83 3.87201L48.926 11.088C50.324 10.777 52.191 11.821 53.643 12.876C54.495 13.494 54.195 14.832 53.163 15.024C50.193 15.576 46.85 16.956 45.278 17.658ZM41.335 32.824L31.056 26.939L36.216 35.949L17.411 46.515L10.666 42.879L13.738 48.579L4.58799 53.72C4.12472 53.9833 3.60182 54.1237 3.06899 54.128C0.920988 54.128 -0.825012 51.74 0.410988 49.538L12.183 28.595L20.53 33.658L14.722 24.083L20.074 14.574C22.084 10.998 25.744 9.09701 29.447 9.09701C30.8544 9.09467 32.2483 9.37132 33.5482 9.91097C34.848 10.4506 36.028 11.2426 37.02 12.241L41.892 17.112C46.392 21.618 45.931 28.852 41.334 32.824H41.335Z" fill="#262626"/>
</svg>
