<svg width="47" height="43" viewBox="0 0 47 43" fill="none" xmlns="http://www.w3.org/2000/svg">
<path d="M45.4145 7.45601L41.6545 23.136C41.5673 23.4981 41.3608 23.8203 41.0682 24.0507C40.7756 24.2811 40.4139 24.4062 40.0415 24.406H19.7385C19.0185 24.406 18.3785 23.941 18.1595 23.253L13.1685 7.64601C13.0407 7.24619 13.0089 6.82186 13.0758 6.40747C13.1427 5.99308 13.3064 5.6003 13.5535 5.26101C13.8012 4.92244 14.1253 4.64703 14.4993 4.45712C14.8734 4.26722 15.287 4.16817 15.7065 4.16801H42.8235C43.2264 4.16822 43.624 4.25975 43.9864 4.4357C44.3489 4.61166 44.6667 4.86747 44.9161 5.18392C45.1654 5.50036 45.3398 5.8692 45.4262 6.26273C45.5125 6.65626 45.5085 7.06424 45.4145 7.45601ZM46.7015 29.789C46.7018 30.1079 46.6392 30.4237 46.5173 30.7184C46.3955 31.0131 46.2168 31.2809 45.9914 31.5064C45.766 31.732 45.4983 31.911 45.2037 32.0331C44.9091 32.1552 44.5934 32.218 44.2745 32.218H18.0875C16.6083 32.2207 15.1667 31.7526 13.9712 30.8816C12.7757 30.0106 11.8883 28.7818 11.4375 27.373L4.2295 5.02101C4.21423 4.97335 4.18421 4.93177 4.14376 4.90229C4.10332 4.87281 4.05455 4.85695 4.0045 4.85701H2.4285C1.78442 4.85701 1.16672 4.60115 0.711291 4.14572C0.255859 3.69028 0 3.07259 0 2.42851C0 1.78443 0.255859 1.16673 0.711291 0.711299C1.16672 0.255867 1.78442 7.61375e-06 2.4285 7.61375e-06H4.0045C5.08245 -0.00185867 6.13301 0.339417 7.00407 0.974418C7.87513 1.60942 8.52147 2.50519 8.8495 3.53201L16.0585 25.884C16.1964 26.3137 16.4674 26.6884 16.8324 26.9539C17.1973 27.2195 17.6372 27.362 18.0885 27.361H44.2745C44.9183 27.3613 45.5356 27.6172 45.9907 28.0725C46.4458 28.5278 46.7015 29.1452 46.7015 29.789ZM23.6795 38.887C23.6795 39.9137 23.2717 40.8983 22.5457 41.6242C21.8198 42.3502 20.8352 42.758 19.8085 42.758C18.7818 42.758 17.7972 42.3502 17.0713 41.6242C16.3453 40.8983 15.9375 39.9137 15.9375 38.887C15.9258 38.3713 16.0172 37.8584 16.2065 37.3785C16.3958 36.8985 16.679 36.4613 17.0396 36.0924C17.4003 35.7235 17.831 35.4304 18.3064 35.2302C18.7819 35.0301 19.2926 34.927 19.8085 34.927C20.3244 34.927 20.8351 35.0301 21.3106 35.2302C21.786 35.4304 22.2167 35.7235 22.5774 36.0924C22.938 36.4613 23.2212 36.8985 23.4105 37.3785C23.5998 37.8584 23.6912 38.3713 23.6795 38.887ZM44.0095 38.887C44.0095 39.9137 43.6017 40.8983 42.8757 41.6242C42.1498 42.3502 41.1652 42.758 40.1385 42.758C39.1118 42.758 38.1272 42.3502 37.4013 41.6242C36.6753 40.8983 36.2675 39.9137 36.2675 38.887C36.2672 37.8603 36.6748 36.8754 37.4005 36.1491C38.1263 35.4228 39.1108 35.0145 40.1375 35.014C40.646 35.0141 41.1495 35.1144 41.6192 35.3091C42.0889 35.5038 42.5157 35.7892 42.8751 36.1488C43.2346 36.5084 43.5197 36.9354 43.7141 37.4052C43.9086 37.875 44.0086 38.3785 44.0085 38.887H44.0095Z" fill="#262626"/>
</svg>
