<svg width="54" height="54" viewBox="0 0 54 54" fill="none" xmlns="http://www.w3.org/2000/svg">
<path d="M40.4337 37.0707C41.0737 37.1157 41.7177 37.1607 42.3507 37.1867C40.7298 39.6277 38.5656 41.6601 36.0277 43.1247C33.4965 44.5927 30.6597 45.4546 27.7397 45.6427C28.0387 45.0627 28.3377 44.4687 28.6257 43.8657C30.1471 43.6775 31.6362 43.2849 33.0527 42.6987C33.0697 42.6657 33.0847 42.6407 33.0917 42.6127C33.1427 42.4317 33.3047 42.2467 33.3047 42.2467L33.2207 42.0367L33.4057 41.7727C33.4057 41.7727 33.6147 41.4317 33.7457 41.3287C33.8757 41.2257 34.9757 40.2757 35.2137 40.0967C35.4207 39.9327 36.3317 39.2477 36.7307 38.9237C36.7857 38.8797 36.8287 38.8377 36.8667 38.8107C37.1277 38.5747 37.6297 37.9427 37.8087 37.6517C37.8977 37.5187 38.0347 37.1817 38.1627 36.8587C38.9247 36.9427 39.6837 37.0147 40.4337 37.0707ZM38.1627 36.8587H38.1597H38.1627ZM21.8997 38.4267C21.9058 38.4299 21.9118 38.4333 21.9177 38.4367L21.9197 38.4427C21.9147 38.4397 21.9097 38.4367 21.9047 38.4337C21.9067 38.4357 21.9077 38.4377 21.9077 38.4407L21.9217 38.4467C21.9677 38.5717 21.9467 38.7887 21.9637 38.8797C21.9907 39.0107 22.1737 38.8547 22.3057 38.8547C22.4057 38.8547 22.4297 38.9327 22.5427 39.0047C22.5826 39.0301 22.6256 39.0503 22.6707 39.0647C22.9047 39.1417 22.9577 38.9857 22.9577 38.9857L23.2217 39.2997L23.4317 39.5887L23.2217 40.0897L23.0387 40.2727C23.0387 40.2727 23.0687 40.0367 23.0387 39.8477C23.0107 39.6667 22.8557 39.9327 22.8557 39.9327L22.6977 40.4307L23.2717 40.9857L23.4457 41.1417L23.8217 41.4867L23.8467 41.5537L24.0607 42.1707L24.0307 42.3807L24.1627 42.7257C24.1627 42.7257 23.9967 42.7967 23.8467 42.8297C23.7959 42.8444 23.7435 42.8531 23.6907 42.8557C23.6137 42.8557 23.5217 42.9467 23.4457 43.0387C23.3627 43.1377 23.2977 43.2487 23.2977 43.2487C23.2977 43.2487 23.3577 43.3657 23.4457 43.4877C23.4989 43.5663 23.564 43.6362 23.6387 43.6947C23.6757 43.7247 23.7087 43.7377 23.7407 43.7647C23.7707 43.7687 23.7967 43.7767 23.8247 43.7797C23.8196 43.7912 23.8136 43.8022 23.8067 43.8127H23.8097L23.7317 43.9467C23.5037 44.3407 23.2177 44.8267 22.8877 45.3397C20.9672 44.9659 19.1153 44.2999 17.3967 43.3647C17.4467 46.8087 18.0907 49.0417 19.3487 49.3797C21.7317 50.0197 25.5967 43.6557 28.7867 34.3497C27.417 34.0429 26.0543 33.7055 24.6997 33.3377C10.0967 29.4137 -0.935288 23.2047 0.0627123 19.4727C0.595712 17.4827 4.43671 16.5987 10.1247 16.7987C10.0587 16.9097 9.99671 17.0277 9.93471 17.1387C11.6031 14.1802 14.0351 11.7237 16.9767 10.0257C19.8988 8.32819 23.2224 7.44488 26.6017 7.4677C26.4867 7.4657 26.3687 7.4617 26.2497 7.4627C28.9197 2.4287 31.6097 -0.470297 33.5917 0.0627034C37.3147 1.0637 37.1617 13.7497 33.2487 28.3877C32.8837 29.7747 32.4887 31.1287 32.0847 32.4427C41.7197 34.3277 49.1427 34.1547 49.7917 31.7627C50.1277 30.5027 48.5187 28.8297 45.5687 27.0637V27.0407C45.5195 29.0076 45.1687 30.9552 44.5287 32.8157C43.9187 32.8487 43.3597 32.8507 42.9067 32.8507C42.5367 32.8507 42.2467 32.8447 42.0767 32.8377C41.5807 32.8197 41.0847 32.7977 40.5847 32.7597C40.6727 32.4517 40.7517 32.2257 40.7647 32.0987C40.7907 31.9387 40.8797 31.6917 40.8797 31.6917L40.2937 31.5567L40.2257 31.1727L39.9787 31.1287L39.7517 31.5617C39.7517 31.5617 39.5737 31.8317 39.3687 31.9417C39.1687 32.0517 38.8987 32.0757 38.8987 32.0757L38.9627 31.7647C38.8547 31.7177 38.6267 31.8067 38.6267 31.8067L38.6017 31.5117C38.6017 31.5117 38.4677 31.2167 38.3557 31.1977C38.2437 31.1727 38.0607 30.9257 38.0607 30.9257C38.0607 30.9257 37.9937 30.8337 37.9267 30.6527C37.9208 30.6456 37.9141 30.6392 37.9067 30.6337L37.9397 30.4787C37.9397 30.4787 38.1527 30.2417 38.3297 30.0327C38.5047 29.8227 38.5647 30.2417 38.7467 30.3947C38.9267 30.5447 38.8667 30.7807 38.8667 30.7807C38.8667 30.7807 38.9847 30.8417 39.1347 30.8417C39.2877 30.8417 39.3447 30.9597 39.3447 30.9597L39.6457 31.0797L39.9457 30.7477C39.9457 30.7477 40.0027 30.5377 40.2127 30.5377C40.4217 30.5377 40.2457 30.8077 40.2457 30.9597C40.2457 31.1097 40.3957 30.9597 40.8107 30.7797C41.2287 30.6037 41.0467 30.6307 41.4377 30.4197C41.8277 30.2097 41.6177 30.2697 41.7647 30.1507C41.9187 30.0327 42.0347 29.9127 42.0347 29.9127L42.3627 30.1257L42.7247 30.0637L43.0847 29.8537V30.1257C43.0847 30.1257 42.8477 30.4257 42.9937 30.6307C43.1447 30.8417 43.1717 30.7807 43.0857 31.0507C42.9937 31.3207 43.0527 31.3207 43.0857 31.4727C43.1087 31.5827 43.1157 31.5977 43.1167 31.6627C44.4757 27.2047 44.0627 22.2187 41.5557 17.8647C40.3971 15.8405 38.8401 14.0722 36.9787 12.6667C37.0317 11.9987 37.0717 11.3367 37.0997 10.6767C39.5361 12.3055 41.5623 14.4761 43.0197 17.0187C44.6961 19.9205 45.5764 23.2135 45.5717 26.5647L45.5737 26.3187C50.5857 28.9917 53.4737 31.6847 52.9437 33.6787C52.0987 36.8337 42.9237 37.2117 31.2827 34.8807C27.4717 46.1537 22.5587 53.9307 19.4117 53.0877C17.4267 52.5537 16.5437 48.6967 16.7437 42.9937C16.8117 43.0297 16.8807 43.0717 16.9457 43.1057C14.0534 41.4333 11.6537 39.0273 9.98871 36.1307C8.52265 33.5899 7.66236 30.7451 7.47471 27.8177C8.02771 28.1067 8.58971 28.3827 9.16071 28.6607C11.2339 29.6495 13.3522 30.5408 15.5087 31.3317H15.5027L15.5087 31.4467L15.1967 32.0007L14.9067 32.1817L14.9867 32.3127L15.0377 32.5757H14.8777V33.1537C14.8777 33.3637 15.2997 33.4427 15.2997 33.4427L15.1697 33.5247C15.1697 33.5247 15.1967 33.6527 15.3267 33.8647C15.4577 34.0777 15.5617 34.2627 15.6157 34.4417C15.6687 34.6257 15.7457 35.1467 15.7457 35.1467C15.7457 35.1467 16.0897 35.7247 16.2457 35.9667C16.4037 36.1997 16.7187 36.5177 16.8497 36.7807C16.9797 37.0437 17.2687 36.9107 17.8177 37.0437C18.3697 37.1737 18.6017 37.3587 18.6017 37.3587C18.6017 37.3587 18.8917 37.5927 19.0767 37.7007C19.2577 37.8017 19.4417 37.8017 19.9397 37.8017C20.4167 37.8017 20.1057 37.8297 20.6877 37.9207L20.7817 37.9337C21.4807 38.0357 20.9277 37.9857 21.5937 38.2917L21.6207 38.3047L21.8467 38.4027L21.9037 38.4337C21.9024 38.4313 21.9011 38.429 21.8997 38.4267ZM21.8217 38.3627C21.8557 38.3677 21.8807 38.3927 21.8997 38.4267C21.8822 38.4184 21.8645 38.4104 21.8467 38.4027C21.8027 38.3777 21.7707 38.3547 21.8217 38.3627ZM36.2717 36.8327C36.3177 36.8147 36.2057 36.7087 36.0407 36.5797C36.2737 36.6177 36.5077 36.6457 36.7407 36.6797C36.9717 36.7137 37.2107 36.7427 37.4427 36.7727L37.4207 36.7847C37.1327 36.9427 36.9757 37.0227 36.7907 37.0227H36.7357C36.5487 37.0277 36.2987 37.0457 36.1087 37.0227C35.9007 36.9957 36.1357 36.8897 36.2707 36.8327H36.2717ZM27.8517 24.3127L27.8237 24.2807C27.8237 24.2807 27.8677 24.2837 27.8517 24.3127ZM34.3407 28.4267C34.3407 28.4267 34.2807 28.8017 34.2807 28.9577C34.2807 29.1127 34.4047 29.1747 34.4047 29.4557C34.4047 29.5987 34.3517 29.7157 34.3077 29.7977C34.2705 29.7895 34.2332 29.7818 34.1957 29.7747C34.1957 29.7747 34.0777 30.0017 34.0367 30.2047C34.025 30.2621 34.0008 30.3161 33.9659 30.3631C33.931 30.4101 33.8862 30.4489 33.8347 30.4767C33.8347 30.4767 33.7007 30.4637 33.5567 30.4607C33.7347 29.8407 33.9027 29.2207 34.0697 28.6077L34.1057 28.4577H34.1457L34.3407 28.4267ZM33.4417 31.3767C33.4857 31.5587 33.4857 31.6467 33.4857 31.6467C33.4857 31.6467 33.4667 31.7007 33.4357 31.7697C33.409 31.6977 33.3823 31.6257 33.3557 31.5537L33.2267 31.5767L33.3107 31.2927C33.3767 31.3177 33.4357 31.3477 33.4417 31.3767ZM35.5117 25.6087C35.5929 25.6695 35.6578 25.7494 35.7005 25.8414C35.7433 25.9333 35.7626 26.0345 35.7567 26.1357C35.7567 26.4477 35.7397 26.2667 35.6917 26.3817C35.6417 26.5017 35.5967 26.4677 35.3147 26.4677C35.0347 26.4677 35.2957 26.4677 34.9187 26.4477C34.6537 26.4377 34.7007 26.4237 34.6357 26.3837C34.7317 26.0107 34.8177 25.6337 34.9097 25.2557L34.9497 25.2767C35.2457 25.4077 35.4107 25.5287 35.5107 25.6087H35.5117ZM21.9187 38.4427C21.9487 38.4587 21.9637 38.4657 21.9207 38.4467C21.9201 38.4454 21.9194 38.444 21.9187 38.4427ZM30.0957 12.8957C30.0957 12.8957 30.2847 12.7897 30.3777 12.7467C30.4757 12.7067 30.3777 12.6957 30.2847 12.6287C30.1907 12.5617 30.0697 12.6807 30.0697 12.6807C30.0697 12.6807 30.0167 12.7347 29.9637 12.8537C29.9603 12.8633 29.9556 12.8724 29.9497 12.8807C29.8977 12.9437 29.8417 12.7807 29.8297 12.6957C29.8157 12.5997 29.4677 12.6657 29.4797 12.6657C29.4947 12.6657 29.5617 12.8397 29.5617 12.8397C29.5617 12.8397 29.5897 13.0027 29.5897 13.0687C29.5897 13.1367 29.5897 13.2547 29.6427 13.3367C29.6957 13.4187 29.8427 13.5397 29.8427 13.5397L29.9497 13.4717L29.9877 13.4437L30.1507 13.1747L30.2847 13.0547L30.0957 12.8957ZM27.9527 11.7047C27.9527 11.7047 27.9747 11.5147 28.0797 11.5387C28.1847 11.5567 28.2897 11.2847 28.2897 11.2847C28.2897 11.2847 28.2037 11.1177 28.1007 11.1177C27.9947 11.1177 27.7647 11.1397 27.7647 11.1397L27.7007 11.0117C27.7007 11.0117 27.5747 10.9907 27.4057 11.0537C27.2357 11.1177 27.1937 10.9687 27.1937 10.9687L27.1727 10.7157L26.9397 10.7797L26.7717 10.6317C26.7717 10.6317 26.7097 10.5047 26.8137 10.5047C26.9167 10.5047 27.0637 10.5267 27.0637 10.5267L27.2757 10.3787L27.1917 10.2117L27.3377 10.0447C27.3377 10.0447 27.0447 9.8937 26.9797 10.0047C26.9167 10.1067 26.6837 10.1927 26.6837 10.1927C26.6837 10.1927 26.7067 10.1287 26.5807 9.9597C26.4567 9.7897 26.6427 9.7067 26.3687 9.7697C26.2343 9.80203 26.1082 9.86234 25.9987 9.9467C25.9387 9.9877 25.9057 10.0217 25.9057 10.0217C25.9057 10.0217 25.6107 10.0837 25.5937 10.1897C25.5697 10.2917 25.9507 10.3577 25.9507 10.3577C25.9507 10.3577 25.9707 10.3277 25.9987 10.3017C26.0537 10.2417 26.1547 10.1577 26.2257 10.2317C26.3287 10.3357 26.4127 10.4647 26.4127 10.4647L26.0137 10.6747L25.9987 10.6607L25.8017 10.5047H25.4037L25.2147 10.5887L24.8347 10.6317C24.8347 10.6317 24.8997 10.8197 24.8997 10.9267C24.8997 11.0347 24.7317 11.1397 24.7317 11.1397L24.5067 11.1197L24.4777 11.1177L24.2447 11.2847C24.2447 11.2847 23.9927 11.3067 23.8877 11.3877C23.8731 11.4025 23.8542 11.4123 23.8337 11.4157C23.7367 11.4417 23.6357 11.3757 23.6357 11.5157C23.6357 11.6837 23.6557 11.7687 23.5327 11.7907C23.4996 11.7985 23.4663 11.8052 23.4327 11.8107L23.1327 11.8757C23.1327 11.8757 23.0057 11.9377 22.9007 12.0437C22.7987 12.1457 22.5637 12.2117 22.5637 12.2117L22.5297 12.2017L22.1437 12.1247L21.5977 12.3587L21.5827 12.3917L21.4707 12.6557L21.1117 12.6977C21.1117 12.6977 20.8157 12.8447 20.7967 12.9487C20.7867 13.0017 20.7297 13.0507 20.6797 13.0867C20.6506 13.1075 20.6194 13.1252 20.5867 13.1397C20.5867 13.1397 20.3767 13.2237 20.2707 13.3057C20.1667 13.3887 20.0387 13.5557 20.0387 13.5557L19.9517 13.7467L20.1017 13.9597L19.7647 13.9997L19.8047 14.1677C19.9727 14.3357 20.0797 14.4197 20.1837 14.3357C20.2867 14.2487 20.2237 14.1857 20.3497 14.1457C20.4237 14.1177 20.5577 14.0737 20.6737 14.0317C20.7577 14.0017 20.8337 13.9737 20.8757 13.9547C20.9797 13.9147 21.1497 13.7667 21.2747 13.7667C21.4027 13.7667 21.5267 13.7457 21.5267 13.7457L21.5767 13.7057L21.8627 13.4717L22.1997 13.6217L22.4747 13.5807C22.4747 13.5807 22.4747 13.6497 22.5237 13.7027C22.5437 13.7207 22.5667 13.7357 22.6017 13.7467C22.7257 13.7887 22.9157 13.7887 22.9157 13.7887C22.9157 13.7887 23.0197 13.6397 23.1687 13.6397H23.5447L23.5877 13.4507L23.8247 13.5607L23.8587 13.5777L24.0487 13.7247C24.0487 13.7247 23.9647 13.7467 24.1747 13.8307C24.3027 13.8807 24.4217 13.8637 24.4977 13.8407C24.5437 13.8247 24.5757 13.8077 24.5757 13.8077L24.9347 13.8917C24.9347 13.8917 24.9567 13.5547 24.8497 13.5547C24.7417 13.5547 24.5357 13.4507 24.5357 13.4507L24.7667 13.3667L25.0187 13.3247L25.0827 13.5997L25.4817 13.4717L25.4187 13.2397L25.4397 12.8797L25.8177 12.9427L25.8407 13.1947C25.8407 13.1947 25.9137 13.2287 25.9957 13.2457C26.0847 13.2707 26.1767 13.2737 26.1767 13.1947C26.1767 13.0467 26.0927 12.9427 26.1977 12.9427C26.3027 12.9427 26.5147 12.8797 26.5147 12.8797L26.6167 12.7297L26.7667 12.3917L26.9317 12.6467L27.1647 12.4977L27.1217 12.2847L27.6257 12.0517C27.6257 12.0517 27.9237 12.0097 28.0507 12.0097C28.1747 12.0097 28.2167 11.9717 28.2167 11.9717C28.2167 11.9717 28.3007 11.8017 28.1747 11.8017C28.0547 11.8067 27.9527 11.7047 27.9527 11.7047ZM22.9237 19.8697L22.7137 19.9717L23.1987 20.2057L23.4367 20.2177L23.6147 20.2277C23.6147 20.2277 23.7427 20.0147 23.7647 19.8057C23.7747 19.7057 23.7987 19.6657 23.8367 19.6347C23.8797 19.6017 23.9447 19.5787 24.0377 19.5097C24.2037 19.3847 24.1657 19.3417 24.1237 19.2157C24.0897 19.1187 23.9237 19.1317 23.8367 19.1437L23.7857 19.1497L23.4357 19.3237L23.4057 19.3407L23.2387 19.1277L23.0057 19.1917L22.7807 19.4187C22.8117 19.4187 22.9237 19.4477 22.9237 19.4477C22.9237 19.4477 22.9837 19.4247 23.1557 19.4477C23.3227 19.4697 23.1137 19.6147 23.1137 19.6147L22.7777 19.6997L22.9237 19.8697ZM22.7807 19.4197C22.7727 19.4197 22.7707 19.4207 22.7747 19.4247L22.7807 19.4197ZM23.7247 14.9337L23.4367 14.9527H23.4287C23.4287 14.9527 23.3727 15.2527 23.4367 15.4317L23.4487 15.4637C23.4862 15.537 23.5413 15.6 23.609 15.6469C23.6767 15.6938 23.7549 15.7233 23.8367 15.7327C23.9177 15.7447 24.0107 15.7417 24.1237 15.7157C24.3107 15.6757 24.3677 15.6637 24.3787 15.6637L24.3537 15.6737C24.3537 15.6737 24.3897 15.6637 24.3787 15.6637L24.5087 15.6137L24.6727 15.5477C24.6727 15.5477 24.9437 15.3817 24.9437 15.2327C24.9437 15.0827 24.7107 15.1287 24.5227 15.1287H24.5087C24.3357 15.1267 24.3497 15.1017 24.2707 14.8957C24.1857 14.6827 24.1857 15.0197 24.1857 15.0197C24.1857 15.0197 24.1017 15.0007 24.0197 14.8097C23.9337 14.6197 23.9147 14.4727 23.9147 14.4727L23.8397 14.5117L23.6027 14.6397L23.6647 14.7667L23.7247 14.9337ZM23.5127 20.9857C23.5127 20.9857 23.5977 21.0897 23.7247 21.2627C23.7777 21.3347 23.8127 21.3107 23.8367 21.2627C23.8707 21.1977 23.8947 21.0927 23.9527 21.0927C24.0567 21.0927 23.9757 21.2627 24.1017 21.2427C24.2277 21.2207 24.5007 21.2197 24.5007 21.2197L24.5087 21.2287L24.6897 21.4317C24.6897 21.4317 24.9007 21.3267 24.9217 21.2197C24.9437 21.1157 24.9437 21.1157 25.1117 21.1157C25.2787 21.1157 25.2167 21.0937 25.4277 20.9257C25.6377 20.7597 25.3637 20.6117 25.1947 20.5257C25.0247 20.4407 25.1707 20.2927 25.1707 20.2927L25.1947 19.9947C25.1947 19.9947 25.1947 19.8927 25.1707 19.7417C25.1497 19.5947 25.1077 19.4887 25.0867 19.3417C25.0657 19.1947 24.9197 19.2387 24.9197 19.2387V19.0477C24.9197 19.0477 25.2347 19.0477 25.3407 19.0057C25.4447 18.9657 25.3407 18.7527 25.3407 18.7527C25.3407 18.7527 25.0907 18.6507 24.9007 18.5867C24.7107 18.5247 24.8367 18.4827 25.1527 18.4607C25.4657 18.4407 25.1947 18.2927 25.1947 18.2927L24.9427 18.1457C24.9427 18.1457 24.8157 18.3137 24.6057 18.3987C24.5691 18.411 24.5354 18.4307 24.5067 18.4567C24.4317 18.5297 24.4807 18.6167 24.4157 18.7147V18.8807L24.5067 19.0377L24.5627 19.1357C24.5627 19.1357 24.5427 19.2227 24.5067 19.3147C24.4867 19.3617 24.4667 19.4107 24.4367 19.4517C24.3517 19.5787 24.4777 19.7277 24.4777 19.7277C24.4777 19.7277 24.4777 20.0017 24.4367 20.1517C24.3957 20.2987 24.0767 20.0227 24.0767 20.0227L24.0137 20.3827H23.7217L23.7637 20.5727L23.8347 20.6287L23.9517 20.7207L24.0757 20.9107L23.8357 20.8227L23.7217 20.7847L23.5127 20.9857ZM20.2127 11.4727L19.8527 11.8527C19.8527 11.8527 20.1667 11.9157 20.2747 11.8927C20.3357 11.8807 20.5077 11.7687 20.6827 11.6467C20.8107 11.5587 20.9387 11.4727 21.0327 11.4097C21.2667 11.2607 21.3497 11.3067 21.3497 11.3067L21.4347 11.4727L20.9277 11.7697L21.5177 11.6847L21.5887 11.6187L21.8157 11.4097L22.0487 11.1347L22.4057 11.1567L22.5397 11.1077L22.8457 10.9907C22.8457 10.9907 23.0987 10.8247 23.2067 10.6307C23.2877 10.4827 23.3437 10.5677 23.4447 10.5907C23.4747 10.5997 23.5037 10.5997 23.5427 10.5887C23.7087 10.5487 23.6277 10.3987 23.6277 10.2517C23.6277 10.1807 23.7267 10.1737 23.8477 10.1757C23.9697 10.1787 24.1107 10.1897 24.1767 10.1447C24.3007 10.0577 24.0717 9.8917 23.9027 9.8477L23.8477 9.8347C23.7157 9.8027 23.6477 9.7877 23.6277 9.6587C23.6147 9.5817 23.5377 9.5577 23.4477 9.5617C23.3626 9.56594 23.2801 9.59175 23.2077 9.6367C23.0837 9.7227 22.8317 9.7407 22.9127 9.5737C22.9257 9.5467 22.9467 9.5387 22.9577 9.5207C22.3057 9.6587 21.6537 9.8347 21.0077 10.0507C21.1537 10.0467 21.2157 10.0577 21.3117 10.0577C21.4377 10.0577 21.1857 10.2077 21.1857 10.2077C21.1857 10.2077 20.8077 10.3357 20.6997 10.4197L20.6877 10.4317C20.5967 10.5177 20.6377 10.6537 20.6377 10.6537H20.6877C20.7557 10.6517 20.8777 10.6477 20.9527 10.6317C21.0557 10.6077 21.1427 10.5677 21.4127 10.3977C21.5027 10.3447 21.5527 10.3157 21.5887 10.2987C21.6687 10.2657 21.6717 10.2837 21.7707 10.2287C21.9177 10.1397 21.8107 10.4587 21.8107 10.4587L22.2097 10.3107L22.5337 10.2967L22.6517 10.2897L22.7777 10.0567L22.5337 10.0047L22.3997 9.9727L22.5267 9.8457H22.5337C22.5917 9.8457 22.9577 9.8477 23.0727 9.8697C23.2007 9.8887 23.0727 10.0367 23.0727 10.0367L23.0327 10.2027L22.8857 10.4777C22.8857 10.4777 22.6957 10.5007 22.5497 10.5007H22.5337C22.3897 10.5097 22.2337 10.6687 22.2337 10.6687L21.9387 10.8787H21.5157L21.4517 11.1107L21.1147 11.0707C21.1147 11.0707 21.0747 10.9657 21.0527 10.8187C21.0297 10.6687 20.8857 10.8187 20.8857 10.8187C20.8857 10.8187 20.8257 11.0687 20.6827 11.1767C20.6558 11.1984 20.6238 11.2129 20.5897 11.2187C20.3817 11.2607 20.2117 11.4727 20.2117 11.4727H20.2127ZM24.7957 9.2397C24.6157 9.2567 24.4357 9.2737 24.2557 9.2957C24.2787 9.3007 24.2957 9.3097 24.3557 9.3217C24.4797 9.3417 24.3757 9.3837 24.3757 9.4877C24.3757 9.5557 24.4057 9.5837 24.5097 9.6027C24.5627 9.6127 24.6347 9.6217 24.7367 9.6367C25.0317 9.6767 24.8387 9.5497 24.7987 9.2987C24.7957 9.2767 24.7927 9.2557 24.7957 9.2387V9.2397ZM23.6607 9.4877C23.6607 9.4877 23.6837 9.4447 23.7007 9.3807C23.6697 9.3867 23.6407 9.3897 23.6107 9.3947C23.6527 9.4317 23.6607 9.4877 23.6607 9.4877ZM26.0717 9.1557C26.0456 9.20694 26.0342 9.26439 26.0387 9.3217C26.0607 9.5097 26.1017 9.3217 26.2287 9.2797C26.3047 9.2517 26.3227 9.2237 26.3367 9.1547C26.2537 9.1527 26.1647 9.1557 26.0717 9.1557ZM13.7397 14.7457L14.0047 14.7627L14.3407 14.5517L14.6777 14.6537L14.4877 14.7417C14.4877 14.7417 14.3017 15.0137 14.2577 15.1417C14.2137 15.2667 14.7607 15.2447 14.7607 15.2447C14.7607 15.2447 14.9077 14.8447 14.9077 14.6757C14.9077 14.5097 15.3487 14.4007 15.3487 14.4007L15.4737 14.0637L15.6867 14.2137C15.6867 14.2137 15.8107 13.9807 15.7897 13.8767C15.7657 13.7707 15.3897 13.7487 15.3897 13.7487L15.7657 13.5587L16.1457 13.6647L16.0597 14.4007H16.4377L16.5217 14.5297C16.5217 14.5297 15.9967 14.8227 15.8907 14.8227C15.7887 14.8227 15.5537 15.0997 15.5537 15.0997L15.3437 15.3337C15.3437 15.3337 15.4297 15.4597 15.5947 15.5017C15.7607 15.5417 15.7607 15.6487 15.7607 15.6487C15.7607 15.6487 15.9937 15.5647 15.9937 15.4377C15.9937 15.3117 15.9087 15.2717 15.9087 15.2717L16.2237 14.9117C16.3477 14.7627 17.0217 14.4687 17.1487 14.3197C17.2727 14.1727 17.1887 14.0687 17.1887 14.0687L17.5047 13.8787C17.5047 13.8787 17.5897 13.4787 17.6307 13.3747C17.6707 13.2707 18.1147 13.0577 18.4307 12.8247C18.7457 12.5917 18.7887 12.5727 19.2067 12.4657C19.6297 12.3597 19.3337 12.3157 19.3107 12.1887C19.2907 12.0617 18.9537 12.3587 18.9537 12.3587L18.4497 12.2087C18.4497 12.2087 18.6597 12.2087 18.8697 12.0417C19.0827 11.8757 19.0377 12.0007 19.1847 11.9377C19.3347 11.8757 19.2897 11.8097 19.2897 11.8097H19.5217C19.5217 11.8097 19.7117 11.6227 19.8177 11.4517C19.9217 11.2847 20.1547 10.9657 20.1547 10.9657C20.1547 10.9657 19.6297 11.2637 19.5227 11.3037C19.4207 11.3437 19.2497 11.2637 19.1237 11.2637C18.9957 11.2637 18.8097 11.4737 18.5977 11.5567C18.3877 11.6437 18.1557 11.7697 18.1557 11.7697L17.8427 11.7077L17.5907 11.8097L16.9807 12.0637C16.9807 12.0637 17.0837 11.9797 17.3407 11.8307L17.8427 11.5337L18.2427 11.4307L18.2767 11.2247C18.1167 11.3107 17.9567 11.3907 17.7937 11.4837C16.2889 12.3648 14.9228 13.4637 13.7397 14.7447V14.7457ZM29.5747 31.9147C30.0101 30.5277 30.4152 29.1314 30.7897 27.7267C34.1997 14.9867 34.5917 4.0197 31.6747 3.2367C30.4177 2.8987 28.7507 4.5097 26.9877 7.4667H26.9317C28.9077 7.5137 30.8647 7.8667 32.7247 8.5107C32.7597 9.1207 32.7627 9.6837 32.7607 10.1377H32.7627C32.7607 10.5057 32.7567 10.7997 32.7497 10.9717C32.6927 12.5717 32.5477 14.2117 32.3367 15.8627C32.2572 15.835 32.1746 15.8172 32.0907 15.8097C31.8647 15.7937 31.8587 15.8067 31.8617 15.8097C31.8587 15.8067 31.6717 15.6497 31.6037 15.5297C31.5317 15.4097 31.3937 15.3197 31.1337 15.2327C30.8707 15.1427 30.8897 15.3367 30.8897 15.3367C30.8897 15.3367 30.6467 15.5087 30.3317 15.4767C30.0317 15.4417 29.9567 15.7787 29.9517 15.8047H29.9507L29.7247 15.9987C29.7247 15.9987 29.6027 16.2087 29.4627 16.2087C29.3806 16.2081 29.2987 16.2192 29.2197 16.2417C29.2197 16.2417 29.1507 16.5017 29.1507 16.6417C29.1507 16.7817 29.0107 16.8017 29.0107 16.8017C29.0107 16.8017 28.8367 16.8347 28.7147 16.8887C28.5937 16.9387 28.4717 17.0107 28.3487 17.0787C28.2277 17.1487 28.2787 17.2017 28.0357 17.3417C27.7927 17.4797 27.7057 17.5317 27.7057 17.5317L27.3757 17.6017L27.5457 17.7757L27.2857 17.8287C27.2857 17.8287 27.2667 17.9847 27.3017 18.1067C27.3347 18.2287 27.6017 18.2467 27.6017 18.2467C27.6017 18.2467 27.4277 18.3867 27.2177 18.4767C27.0077 18.5647 27.0077 18.5967 27.0257 18.6847C27.0437 18.7737 27.1647 18.9647 27.5117 19.0517C27.8637 19.1397 27.6167 19.0347 27.7717 18.9487C27.9327 18.8587 28.1017 18.8087 28.1017 18.8087C28.1017 18.8087 28.3157 19.1587 28.3157 19.3137C28.3157 19.4697 28.2627 19.7667 28.2817 19.8737C28.2987 19.9777 28.4717 19.8387 28.4717 19.8387L28.3157 20.0117C28.3157 20.0117 28.3487 20.3247 28.3487 20.4147C28.3487 20.5027 28.6587 20.4477 28.6587 20.3627C28.6587 20.2767 28.8297 20.1327 29.0917 20.1187C29.3517 20.1007 29.3197 20.0677 29.3197 19.8577C29.3197 19.6477 29.3707 19.3677 29.3707 19.3677L29.6687 19.2807C29.6687 19.2807 29.8387 19.1527 29.9507 19.0467C29.9758 19.0222 29.9986 18.9955 30.0187 18.9667C30.0547 18.9107 30.0127 18.8547 29.9507 18.8007C29.8977 18.7567 29.8317 18.7107 29.7907 18.6727C29.7007 18.5847 29.6687 18.3067 29.6687 18.1307C29.6687 17.9577 29.6687 18.0267 29.6887 17.9037C29.7037 17.7927 29.8347 17.7837 29.9507 17.7557C29.9614 17.7526 29.9721 17.7492 29.9827 17.7457C30.1047 17.7117 30.2607 17.5037 30.4867 17.3967C30.7127 17.2887 30.3647 17.2747 30.3647 17.2747C30.3647 17.2747 30.4007 17.0847 30.4347 16.9247C30.4687 16.7667 30.9207 16.9777 30.9207 16.9777L31.0957 17.1847L30.8867 17.3437L30.6467 17.7067L30.2997 18.1617L30.5787 18.8917C30.5787 18.8917 30.8197 19.0127 30.9767 18.9937C31.1369 18.9733 31.2879 18.9074 31.4117 18.8037C31.4567 18.7687 31.6777 18.7067 31.9217 18.6537L31.8397 19.1417C31.7607 19.1737 31.6717 19.1077 31.4737 19.1077C31.2017 19.1077 31.1297 19.2327 30.8837 19.2567C30.6357 19.2837 30.7837 19.4547 30.7837 19.5777C30.7837 19.7007 31.1297 19.8497 31.1297 19.8497L30.8587 20.0227C30.8587 20.0227 30.7337 19.7507 30.4907 19.7767C30.2477 19.8017 30.3427 20.1217 30.1917 20.2447C30.0457 20.3687 30.2917 20.7427 30.2917 20.7427C30.2917 20.7427 30.1137 20.7627 29.9517 20.8547C29.9337 20.8677 29.9147 20.8767 29.8957 20.8877C29.7247 21.0097 29.6747 20.9137 29.6747 20.9137C29.6747 20.9137 29.5747 20.7647 29.4537 20.7647C29.3287 20.7647 29.1527 20.9617 29.0297 21.0097C28.9047 21.0587 28.4877 21.0097 28.4877 21.0097L28.2147 20.7117L27.9887 20.9377C27.9887 20.9377 27.7927 20.8877 27.6687 20.7377C27.5497 20.5877 27.6687 20.6157 27.6427 20.4907C27.6197 20.3687 27.5697 20.3687 27.5697 20.3687L27.6927 20.1717L28.0137 19.9727C28.0137 19.9727 28.0867 19.5297 27.9387 19.3327C27.7887 19.1337 27.7887 19.5297 27.7887 19.5297L27.2957 19.8497L27.3217 20.5187L27.2217 20.8147L27.0297 20.7677L26.9057 20.9167C26.9057 20.9167 26.7817 20.8417 26.5877 20.7677C26.3877 20.6937 26.0427 21.0137 26.0427 21.0137L25.9987 21.1237L25.9197 21.3087L25.6487 21.2587L25.5007 21.4327H25.2027C25.0767 21.4327 25.1537 21.6537 25.1537 21.6537C25.1537 21.6537 25.0687 21.7537 24.9727 21.7897L24.9297 21.7327C24.7857 21.7127 24.7497 21.7327 24.6617 21.8047C24.6141 21.8377 24.5604 21.8609 24.5037 21.8727C24.4337 21.8887 24.3727 21.8957 24.3727 21.8957L24.2467 21.5727C24.2467 21.5727 24.1567 21.4077 24.0697 21.5377C23.9787 21.6657 24.0137 21.7527 24.0137 21.7527L24.0507 21.9727L23.8707 21.9897L23.8357 21.9797L23.7457 21.9527L23.4357 21.7647L23.3877 21.7377C23.3877 21.7377 23.1727 21.7007 23.2117 21.8427C23.2447 21.9867 23.4267 22.1657 23.4267 22.2567C23.4267 22.2687 23.4317 22.2747 23.4377 22.2807C23.4917 22.3437 23.7507 22.3247 23.7507 22.4397C23.7507 22.5657 23.5857 22.7097 23.5857 22.7097C23.5857 22.7097 23.7127 22.8157 23.7127 22.9797C23.7127 23.1417 23.6757 23.3747 23.6387 23.4797C23.6037 23.5877 23.5147 23.5527 23.4787 23.6617C23.4687 23.6897 23.4507 23.7187 23.4347 23.7487C23.3787 23.8427 23.2997 23.9307 23.2997 23.9307C23.2997 23.9307 23.0297 24.0027 22.9387 23.9657C22.8457 23.9307 22.7747 23.8007 22.6147 23.7687C22.5861 23.7609 22.5562 23.7589 22.5267 23.7627C22.4647 23.7707 22.4537 23.8037 22.2937 23.6957C22.0757 23.5507 22.0067 23.4977 21.8617 23.4437C21.7177 23.3937 21.6467 23.2647 21.6467 23.2647L21.5807 23.2287C21.5134 23.1845 21.4379 23.1543 21.3587 23.1397C21.2687 23.1397 21.1257 23.3037 21.1257 23.3037C21.1257 23.3037 21.1597 23.4467 21.1257 23.6267C21.0927 23.8057 21.1597 23.8967 21.0547 23.9687C20.9487 24.0407 20.9277 23.9857 20.9107 24.1317C20.8907 24.2757 20.9827 24.2037 20.8397 24.3477C20.7097 24.4787 20.7697 24.4757 20.6767 24.5417C20.6647 24.5477 20.6527 24.5577 20.6417 24.5657C20.4957 24.6557 20.4437 24.6377 20.3517 24.7827C20.271 24.9123 20.228 25.062 20.2277 25.2147C20.2277 25.3397 20.6207 25.7887 20.6207 25.7887L20.6767 25.8047C20.7387 25.8247 20.8397 25.8677 20.8397 25.9517C20.8397 26.0797 20.6917 26.1327 20.8397 26.2237C20.9827 26.3147 20.9107 26.3297 20.9997 26.3867C21.0437 26.4127 21.3127 26.4717 21.5807 26.5277C21.8747 26.5847 22.1667 26.6377 22.1667 26.6377L22.3647 26.4947H22.7057L22.7947 26.1877L23.0647 26.1707L23.0837 25.8807C23.0837 25.8807 23.0487 25.5907 23.1367 25.5907C23.1797 25.5907 23.3117 25.5167 23.4367 25.4417C23.5607 25.3647 23.6757 25.2847 23.6757 25.2847C23.6757 25.2847 23.7437 25.2997 23.8367 25.3117C23.9737 25.3337 24.1597 25.3477 24.2147 25.3017C24.3057 25.2317 24.5037 24.9417 24.5037 24.9417C24.5037 24.9417 24.4627 24.7117 24.5087 24.6127C24.5227 24.5807 24.5417 24.5657 24.5737 24.5657C24.7167 24.5657 25.0607 24.5847 25.1677 24.6917C25.2737 24.7977 25.5417 24.9417 25.6517 24.9247C25.7457 24.9077 25.8937 24.8127 26.0017 24.7387L26.0457 24.7057C26.0847 24.6777 26.1917 24.6037 26.3077 24.5157L26.3157 24.5287C26.3157 24.5287 26.5657 24.5627 26.6377 24.6917C26.7097 24.8167 26.7447 25.0517 26.7097 25.1937C26.6747 25.3347 26.9427 25.4637 27.0327 25.5697C27.1227 25.6767 27.5557 26.2537 27.6977 26.4337C27.8407 26.6107 28.1287 26.9357 28.1287 26.9357L28.2727 27.2797L27.9697 27.4957C27.9697 27.4957 27.6457 27.4777 27.5367 27.4407C27.4297 27.4047 27.3407 27.5127 27.3407 27.5127C27.3407 27.5127 27.2667 27.4767 27.1067 27.3347C26.9447 27.1897 27.0547 27.3527 26.8557 27.4617C26.6587 27.5677 27.1067 27.7297 27.2177 27.8207C27.3217 27.9147 27.4657 28.0707 27.5377 28.1657C27.6087 28.2557 27.7897 28.1327 27.7897 27.9857C27.7897 27.8407 27.8077 27.7157 27.8077 27.7157H28.1287L28.3287 27.4837L28.4937 27.3407L28.5657 27.1407L28.4387 26.7807C28.4387 26.7807 28.6587 26.7087 28.7397 26.7087C28.8337 26.7087 28.9197 26.9787 28.9197 26.9787L29.0137 27.0147C29.0137 27.0147 29.0137 26.7987 28.9597 26.7087C28.9067 26.6167 28.6187 26.4037 28.6187 26.4037C28.6187 26.4037 28.2957 26.2777 28.2007 26.2067C28.1117 26.1347 27.9017 25.7567 27.7897 25.5607C27.6837 25.3617 27.7567 25.3407 27.7367 25.2547C27.7177 25.1647 27.5367 25.0557 27.4657 24.9337C27.3937 24.8047 27.4157 24.6277 27.4157 24.6277C27.4157 24.6277 27.5777 24.5197 27.7567 24.4117C27.8207 24.3737 27.8517 24.3457 27.8547 24.3307C27.9267 24.4047 28.1137 24.6207 28.1137 24.7517C28.1137 24.9157 28.1847 25.0947 28.2207 25.2017C28.2567 25.3077 28.4717 25.3987 28.7607 25.4527C29.0487 25.5057 28.9567 25.7037 28.9567 25.7037C28.9567 25.7037 29.2267 26.0277 29.2597 26.2437C29.2927 26.4607 29.2927 26.5687 29.3127 26.8377C29.3327 27.1067 29.4597 27.1397 29.5447 27.3987C29.6357 27.6477 29.6687 27.6477 29.7247 27.8437C29.7497 27.9367 29.7667 28.0267 29.7987 28.1167C29.6217 28.7767 29.4327 29.4417 29.2337 30.1097C29.0667 30.2667 28.9457 30.8367 28.9457 30.8367C28.9457 30.8367 28.8917 30.8697 28.8137 30.8887L28.4407 30.7987C28.2537 30.5947 27.8157 30.5137 27.5867 30.3637C27.3517 30.2037 27.3517 29.8637 27.1667 29.7057C26.9827 29.5457 26.8517 29.6277 26.8517 29.6277C26.8517 29.6277 26.3287 29.5217 26.2217 29.3907C26.1487 29.3023 26.0737 29.2156 25.9967 29.1307C25.9317 29.0527 25.8787 28.9987 25.8787 28.9987C25.8787 28.9987 25.9287 28.9487 25.9967 28.8957C26.0747 28.8287 26.1737 28.7517 26.2457 28.7357C26.3757 28.7077 26.1937 28.4437 26.0357 28.1817C25.8767 27.9187 26.4557 27.8397 26.4277 27.7087C26.4007 27.5797 26.1507 27.5767 25.9957 27.5037L25.9817 27.4987C25.8237 27.4177 25.4597 27.4987 25.4597 27.4987L24.9597 27.3957C24.9597 27.3957 24.8017 27.4457 24.6717 27.4987C24.6247 27.5177 24.5647 27.5087 24.5017 27.4777C24.3703 27.4151 24.2644 27.3091 24.2017 27.1777C24.1307 27.0337 23.9817 27.0637 23.8337 27.0537C23.7608 27.0503 23.6896 27.0301 23.6257 26.9947C23.5691 26.9565 23.502 26.9369 23.4337 26.9387C23.3177 26.9427 23.2117 27.0047 23.0737 27.0237C22.9037 27.0457 22.6757 27.1017 22.5247 27.1207C22.4985 27.1268 22.4716 27.1301 22.4447 27.1307C22.3127 27.1307 22.1537 27.2337 21.9717 27.3407C21.7877 27.4447 21.7377 27.0507 21.7377 27.0507C21.7377 27.0507 21.6817 27.0507 21.5777 27.0317C21.4164 27.0003 21.2583 26.9538 21.1057 26.8927C20.7127 26.7327 20.8947 26.4977 20.8947 26.4977C20.8947 26.4977 20.8227 26.5577 20.6737 26.6877C20.6237 26.7297 20.5697 26.7817 20.5037 26.8397C20.2407 27.0737 20.1627 27.1797 19.9267 27.1547C19.6937 27.1257 19.5607 27.2337 19.4027 27.3127C19.2577 27.3867 18.9367 27.9457 18.8897 28.0367C15.7637 26.9597 12.6737 25.6967 9.88171 24.2117C9.69404 24.1102 9.50737 24.0069 9.32171 23.9017V23.9027C8.79577 23.6038 8.27824 23.2904 7.76971 22.9627C8.14101 21.0381 8.8054 19.1818 9.73971 17.4587C6.30471 17.5087 4.07771 18.1537 3.74171 19.4117C2.96171 22.3387 12.6317 27.4767 25.3377 30.8947C26.7817 31.2637 28.1947 31.6067 29.5747 31.9147ZM9.74171 17.4537L9.73971 17.4587L9.74171 17.4537ZM25.7127 26.5307C25.6257 26.5647 25.6257 26.7607 25.6257 26.7607C25.6257 26.7607 25.6957 26.8497 25.7847 26.8647C25.8575 26.8758 25.9319 26.871 26.0027 26.8507C26.0447 26.8407 26.0977 26.8287 26.1547 26.8127C26.3277 26.7617 26.2237 26.6727 26.2587 26.5497C26.2927 26.4267 26.2927 26.2657 26.3627 26.1437C26.4327 26.0217 26.2207 25.9317 26.2207 25.9317C26.2207 25.9317 26.0577 26.1617 25.9987 26.2537L25.9927 26.2657C25.9407 26.3517 25.8027 26.4947 25.7127 26.5307ZM26.0017 25.5887C26.0957 25.5697 26.3027 25.5137 26.3477 25.4037C26.3977 25.2637 26.3807 25.3347 26.4357 25.1747C26.4897 25.0147 26.2937 25.2277 26.2937 25.2277L26.0637 25.3677L26.0017 25.5047L25.9607 25.5977C25.9607 25.5977 25.9747 25.5977 26.0007 25.5877L26.0017 25.5887Z" fill="#262626"/>
</svg>
