<svg width="54" height="48" viewBox="0 0 54 48" fill="none" xmlns="http://www.w3.org/2000/svg">
<path d="M27.9178 18.85C27.8568 18.927 27.7828 18.985 27.7178 19.054C27.7548 18.26 27.7678 17.454 27.7378 16.639C27.7418 15.921 27.6408 15.206 27.5778 14.503C27.5138 13.802 27.3358 13.121 27.2268 12.461C27.0588 11.808 26.8528 11.188 26.6788 10.603L25.9688 9.01999L25.1818 7.78999C24.9738 7.40599 24.6568 7.17099 24.4638 6.92999C24.0468 6.47399 23.8058 6.21599 23.8058 6.21599L24.4118 6.97599C24.5848 7.22799 24.8768 7.47899 25.0548 7.87399C25.2578 8.24999 25.4868 8.67399 25.7378 9.13399C25.9158 9.62599 26.1078 10.159 26.3148 10.724C26.4398 11.309 26.5978 11.922 26.7148 12.563C26.7718 13.214 26.8958 13.877 26.9078 14.565C26.9208 15.249 26.9678 15.942 26.9108 16.64C26.8878 17.632 26.7708 18.608 26.6348 19.562C26.0988 19.135 24.6208 17.454 23.9658 16.728C23.1992 15.8624 22.5224 14.9213 21.9458 13.919C21.3308 12.893 20.8788 11.779 20.5278 10.662C19.8208 8.41899 19.7778 6.14299 19.9438 4.19599C20.0348 3.20699 20.1098 2.30199 20.0768 1.55299C20.0428 1.21299 20.0368 0.84299 19.9888 0.62799C19.9438 0.40099 19.9148 0.27999 19.9148 0.27999L20.2598 0.16499C20.4818 0.10499 20.8618 -0.0140095 21.2908 0.00199048C22.1738 -0.0270095 23.4348 0.259991 24.6538 0.920991C25.8718 1.58199 27.0338 2.59099 27.9468 3.78799C28.8888 4.97599 29.5628 6.36799 29.9998 7.79299C30.4218 9.22499 30.6168 10.698 30.5138 12.113C30.4441 13.4598 30.1473 14.7851 29.6358 16.033C29.1378 17.194 28.5218 18.172 27.9178 18.851V18.85ZM22.8408 20.945C22.8578 20.852 22.8538 20.76 22.8578 20.669C22.4828 20.199 22.0878 19.732 21.6658 19.283C21.3108 18.873 20.8958 18.516 20.5118 18.148C20.1248 17.778 19.6858 17.48 19.2948 17.158C18.8748 16.87 18.4478 16.617 18.0568 16.371L16.8628 15.823C16.4728 15.709 16.1168 15.603 15.8018 15.513C15.4918 15.4 15.1968 15.421 14.9648 15.379L14.2348 15.302L14.9568 15.432C15.1828 15.491 15.4718 15.489 15.7698 15.624C16.0718 15.738 16.4138 15.864 16.7868 16.001L17.9048 16.62C18.2698 16.89 18.6648 17.161 19.0508 17.47C19.4088 17.812 19.8098 18.128 20.1588 18.513C20.5058 18.899 20.8788 19.269 21.1938 19.695C21.6758 20.272 22.0958 20.885 22.4928 21.495C21.9758 21.522 20.2958 21.299 19.5598 21.212C18.7418 21.105 17.8608 20.915 17.0098 20.619C16.1478 20.339 15.3348 19.931 14.5798 19.471C13.0568 18.544 11.9008 17.269 11.0248 16.078C10.5848 15.47 10.1768 14.918 9.78483 14.507C9.59783 14.329 9.40983 14.121 9.27483 14.023L9.05982 13.861C9.05982 13.861 9.10883 13.778 9.19783 13.621C9.29583 13.478 9.45382 13.222 9.70483 13.017C10.1928 12.561 11.0578 12.097 12.0808 11.865C13.1038 11.634 14.2688 11.631 15.3858 11.858C16.5158 12.066 17.5898 12.523 18.5498 13.117C19.5048 13.723 20.3468 14.466 20.9938 15.325C21.6254 16.1257 22.1164 17.0278 22.4458 17.993C22.7428 18.904 22.8788 19.765 22.8708 20.453C22.8748 20.527 22.8608 20.597 22.8588 20.668C23.3208 21.252 23.7298 21.828 24.1088 22.393C24.8634 22.2774 25.6255 22.2185 26.3888 22.217C26.4818 22.217 26.5688 22.237 26.6628 22.239C26.7708 21.742 26.8748 21.234 26.9688 20.698C27.0288 20.329 27.2908 19.428 27.4638 19.313C27.5618 19.233 27.6358 19.14 27.7208 19.053C27.6661 20.1383 27.5637 21.2207 27.4138 22.297C27.6808 22.316 27.9518 22.326 28.2158 22.359C28.6448 21.707 29.1308 21.022 29.6728 20.341C29.6758 20.433 29.6728 20.524 29.6888 20.619C29.7288 20.77 29.4308 21.414 29.2828 21.653C29.1218 21.915 28.9828 22.168 28.8378 22.421C34.1578 23.291 38.5448 26.937 40.4618 31.826C40.1203 31.5952 39.7766 31.3675 39.4308 31.143C36.7348 29.385 33.3978 29.243 29.5988 30.764C28.2788 31.294 26.9788 31.365 25.7078 30.984C23.2978 30.254 20.9138 30.186 18.6608 30.179C17.1598 30.179 15.9178 30.777 15.0628 31.907C14.8478 32.187 14.7278 32.522 14.7038 32.867C13.5438 32.661 12.8668 32.554 12.4228 32.551L12.0658 32.506C13.7918 27.405 18.1598 23.525 23.5428 22.497C23.4428 22.324 23.3538 22.157 23.2468 21.981C23.0968 21.741 22.8008 21.099 22.8408 20.945ZM30.8648 18.955C30.4428 19.406 30.0478 19.871 29.6728 20.341C29.6688 20.271 29.6568 20.199 29.6598 20.126C29.6528 19.436 29.7888 18.575 30.0848 17.665C30.4151 16.7006 30.9053 15.7987 31.5348 14.997C32.1828 14.137 33.0278 13.395 33.9808 12.789C34.9408 12.193 36.0148 11.738 37.1438 11.529C38.2638 11.302 39.4258 11.307 40.4488 11.536C41.4738 11.768 42.3348 12.233 42.8238 12.689C43.0758 12.893 43.2308 13.15 43.3298 13.294L43.4688 13.535L43.2528 13.695C43.1188 13.793 42.9308 14.002 42.7428 14.178C42.3528 14.589 41.9428 15.142 41.5028 15.751C40.6258 16.941 39.4708 18.216 37.9488 19.143C37.1948 19.602 36.3768 20.013 35.5188 20.29C34.6658 20.585 33.7858 20.776 32.9658 20.883C32.2308 20.971 30.5528 21.194 30.0338 21.17C30.4338 20.559 30.8518 19.943 31.3318 19.366C31.6478 18.94 32.0218 18.569 32.3698 18.186C32.7178 17.799 33.1178 17.484 33.4788 17.142C33.8618 16.834 34.2548 16.562 34.6228 16.292L35.7408 15.673C36.1128 15.536 36.4548 15.407 36.7588 15.296C37.0558 15.16 37.3458 15.162 37.5688 15.104L38.2948 14.974C38.2948 14.974 38.0288 15.001 37.5628 15.052C37.3328 15.092 37.0358 15.071 36.7268 15.185C36.4108 15.277 36.0538 15.383 35.6638 15.495L34.4708 16.043C34.0808 16.292 33.6528 16.541 33.2338 16.829C32.8438 17.153 32.4038 17.451 32.0158 17.819C31.6308 18.188 31.2148 18.545 30.8658 18.955H30.8648ZM53.6808 47.572L40.1328 47.599C37.9658 43.89 34.7678 42.203 30.5558 42.222C28.1548 42.237 25.7548 42.142 23.3598 42.25C21.2498 42.345 19.2868 42.03 17.4398 40.991C16.5708 40.501 15.5898 40.339 14.6268 40.12C12.2948 39.592 10.0198 38.889 7.68483 38.312C4.40183 37.502 3.62183 37.032 1.20083 36.074C0.804826 35.917 0.320826 36.044 0.130826 35.554C-0.0491743 35.084 -0.0761743 34.591 0.260826 34.188C0.847826 33.492 1.44083 33.157 2.49383 33.218C2.57402 33.2275 2.65532 33.2162 2.72983 33.185C4.62283 32.116 4.61983 32.841 6.54383 32.999L11.9568 33.692C12.9108 33.621 20.0668 35.356 20.4768 34.536C18.2638 34.536 15.6828 32.809 15.9978 32.394C16.5618 31.649 17.3488 31.317 18.2968 31.32C20.5068 31.327 22.6848 31.398 24.8518 32.052C26.4758 32.545 28.1468 32.464 29.8368 31.787C32.5938 30.684 35.5558 30.324 38.1548 32.015C41.3578 34.101 44.3968 36.45 46.7208 39.602C49.4208 43.272 50.7258 44.111 53.6808 47.572Z" fill="#262626"/>
</svg>
